<svg xmlns="http://www.w3.org/2000/svg" width="239" height="129" viewBox="0 0 239 129" fill="none">
  <path d="M0 86.0317H18.5959V107.284C18.5959 109.736 19.0046 111.371 19.822 112.189C20.6394 112.87 22.2742 113.21 24.7265 113.21H30.6526C33.1048 113.21 34.7397 112.87 35.5571 112.189C36.3745 111.371 36.7832 109.736 36.7832 107.284V0.204348H55.3791V110.145C55.3791 122.134 49.0442 128.128 36.3745 128.128H19.0046C6.33488 128.128 0 122.134 0 110.145V86.0317Z" fill="white"/>
  <path d="M157.96 28.4048H175.33L156.938 128.128H132.621L120.768 52.7225L108.916 128.128H84.5981L66.4108 28.4048H83.7807L97.0635 112.393L109.938 28.4048H131.803L144.269 112.393L157.96 28.4048Z" fill="white"/>
  <path d="M238.672 0V14.9176L196.78 113.21H237.651V128.128H177.98V113.21L219.872 14.9176H180.228V0H238.672Z" fill="white"/>
  <rect y="51.0877" width="19.1579" height="19.1579" fill="white"/>
  <rect x="217.123" y="89.4035" width="19.1579" height="12.7719" fill="white"/>
</svg>