<svg xmlns="http://www.w3.org/2000/svg" width="21" height="22" viewBox="0 0 21 22" fill="none">
  <path d="M16.7508 9.12344C16.7508 10.9165 16.1687 12.5728 15.1882 13.9166L20.1338 18.8661C20.6221 19.3544 20.6221 20.1474 20.1338 20.6357C19.6455 21.124 18.8525 21.124 18.3642 20.6357L13.4186 15.6863C12.0748 16.6707 10.4185 17.2488 8.6254 17.2488C4.1369 17.2488 0.5 13.6119 0.5 9.12344C0.5 4.63494 4.1369 0.998047 8.6254 0.998047C13.1139 0.998047 16.7508 4.63494 16.7508 9.12344ZM8.6254 14.7487C9.36412 14.7487 10.0956 14.6032 10.7781 14.3205C11.4606 14.0378 12.0807 13.6235 12.6031 13.1011C13.1254 12.5788 13.5398 11.9586 13.8225 11.2761C14.1052 10.5937 14.2507 9.86216 14.2507 9.12344C14.2507 8.38472 14.1052 7.65323 13.8225 6.97074C13.5398 6.28825 13.1254 5.66813 12.6031 5.14577C12.0807 4.62342 11.4606 4.20906 10.7781 3.92637C10.0956 3.64367 9.36412 3.49817 8.6254 3.49817C7.88668 3.49817 7.15519 3.64367 6.4727 3.92637C5.79021 4.20906 5.17008 4.62342 4.64773 5.14577C4.12537 5.66813 3.71102 6.28825 3.42832 6.97074C3.14562 7.65323 3.00012 8.38472 3.00012 9.12344C3.00012 9.86216 3.14562 10.5937 3.42832 11.2761C3.71102 11.9586 4.12537 12.5788 4.64773 13.1011C5.17008 13.6235 5.79021 14.0378 6.4727 14.3205C7.15519 14.6032 7.88668 14.7487 8.6254 14.7487Z" fill="white"/>
</svg>