<svg xmlns="http://www.w3.org/2000/svg" width="256" height="256" viewBox="0 0 256 256" fill="none">
  <rect width="256" height="256" rx="12" fill="black"/>
  <path d="M39 144.459H52.9466V160.383C52.9466 162.22 53.2531 163.445 53.8662 164.057C54.4792 164.568 55.7053 164.823 57.5444 164.823H61.9889C63.8281 164.823 65.0541 164.568 65.6672 164.057C66.2802 163.445 66.5867 162.22 66.5867 160.383V80.1531H80.5333V162.526C80.5333 171.509 75.7823 176 66.2802 176H53.2531C43.751 176 39 171.509 39 162.526V144.459Z" fill="white"/>
  <path d="M157.467 101.282H170.494L156.701 176H138.463L129.574 119.502L120.685 176H102.447L88.807 101.282H101.834L111.796 164.211L121.451 101.282H137.85L147.199 164.211L157.467 101.282Z" fill="white"/>
  <path d="M218 80V91.177L186.582 164.823H217.234V176H172.482V164.823L203.9 91.177H174.168V80H218Z" fill="white"/>
  <rect x="39" y="118" width="14" height="15" fill="white"/>
  <rect x="202" y="147" width="14" height="10" fill="white"/>
</svg>